<svg width="114" height="114" viewBox="0 0 114 114" fill="none" xmlns="http://www.w3.org/2000/svg">
<g clip-path="url(#clip0_244_209)">
<rect width="114" height="114" rx="18" fill="black"/>
<g filter="url(#filter0_d_244_209)">
<path d="M104.576 79.2494L89.7531 70.6682L102.99 68.3688C104.291 68.0627 105.352 67.2148 105.986 66.1133C106.538 65.1543 106.767 64.003 106.548 62.8512C106.078 60.3764 103.723 58.8347 101.289 59.4074L82.2687 66.3353L63.9808 57L82.2689 47.6649L101.289 54.5929C103.724 55.1655 106.079 53.6239 106.548 51.149C107.018 48.6742 105.425 46.2041 102.99 45.6314L89.7535 43.332L104.576 34.7509C106.701 33.5211 107.385 30.7226 106.105 28.5C104.826 26.2774 102.066 25.4728 99.9423 26.7023L85.1192 35.2834L89.7515 22.6395C90.4743 20.2388 89.1374 17.6203 86.765 16.7907C84.3929 15.9613 81.884 17.2354 81.1612 19.6361L77.6348 39.6161L61.5094 48.9512V30.2812L77.0029 17.2289C78.7149 15.4009 78.5608 12.5852 76.6582 10.94C74.7556 9.29434 71.8255 9.44307 70.1135 11.2709L61.5091 21.6155V4.45312C61.5091 1.99366 59.4344 0 56.875 0C54.3156 0 52.2408 1.99366 52.2408 4.45312V21.6155L43.6365 11.2709C41.9245 9.44285 38.9944 9.29456 37.0918 10.94C35.1894 12.5852 35.0353 15.4009 36.7473 17.2289L52.2408 30.2812V48.9516L36.1154 39.6166L32.589 19.6363C31.866 17.2356 29.3571 15.9616 26.9849 16.791C24.6123 17.6203 23.2757 20.239 23.9985 22.6397L28.6308 35.2837L13.8079 26.7025C11.6838 25.4728 8.92441 26.2777 7.6448 28.5002C6.36519 30.7228 7.04964 33.5213 9.17378 34.7511L23.9969 43.3322L10.7602 45.6318C8.32546 46.2045 6.73235 48.6747 7.20194 51.1495C7.67174 53.6241 10.0266 55.1658 12.4615 54.5931L31.4813 47.6651L49.7691 57L31.481 66.3351L12.4611 59.4071C10.0261 58.8345 7.67152 60.3761 7.20149 62.8507C6.73191 65.3251 8.32501 67.7957 10.7598 68.3684L23.9965 70.668L9.17333 79.2491C7.04964 80.4789 6.36497 83.2774 7.6448 85.5C8.92463 87.7226 11.6838 88.5275 13.8079 87.2977L28.631 78.7166L23.9987 91.3603C23.6124 92.6437 23.8143 93.9888 24.4484 95.09C25.0006 96.049 25.8808 96.8232 26.9849 97.209C29.3573 98.0384 31.8662 96.7644 32.589 94.3637L36.1154 74.3834L52.2408 65.0484V83.7188L36.7473 96.7711C35.0351 98.5991 35.1894 101.415 37.0918 103.06C38.9941 104.705 41.9245 104.557 43.6365 102.729L52.2408 92.3843V109.547C52.2408 112.006 54.3156 114 56.875 114C59.4344 114 61.5091 112.006 61.5091 109.547V92.3843L70.1135 102.729C71.0288 103.706 72.2915 104.203 73.5597 104.203C74.6641 104.203 75.7727 103.826 76.6582 103.06C78.5608 101.415 78.7149 98.5991 77.0029 96.7711L61.5091 83.7188V65.0484L77.6346 74.3834L81.161 94.3637C81.8837 96.7644 84.3926 98.0384 86.7648 97.209C89.1368 96.3794 90.474 93.7608 89.7511 91.3603L85.1187 78.7163L99.9418 87.2975C102.066 88.5272 104.825 87.7223 106.105 85.4998C107.385 83.2774 106.701 80.4789 104.576 79.2494V79.2494Z" fill="#A5B9FF"/>
</g>
</g>
<defs>
<filter id="filter0_d_244_209" x="-52" y="-59" width="217.75" height="232" filterUnits="userSpaceOnUse" color-interpolation-filters="sRGB">
<feFlood flood-opacity="0" result="BackgroundImageFix"/>
<feColorMatrix in="SourceAlpha" type="matrix" values="0 0 0 0 0 0 0 0 0 0 0 0 0 0 0 0 0 0 127 0" result="hardAlpha"/>
<feOffset/>
<feGaussianBlur stdDeviation="29.5"/>
<feComposite in2="hardAlpha" operator="out"/>
<feColorMatrix type="matrix" values="0 0 0 0 1 0 0 0 0 1 0 0 0 0 1 0 0 0 0.29 0"/>
<feBlend mode="normal" in2="BackgroundImageFix" result="effect1_dropShadow_244_209"/>
<feBlend mode="normal" in="SourceGraphic" in2="effect1_dropShadow_244_209" result="shape"/>
</filter>
<clipPath id="clip0_244_209">
<rect width="114" height="114" fill="white"/>
</clipPath>
</defs>
</svg>
