<?xml version="1.0" standalone="no"?>
<!DOCTYPE svg PUBLIC "-//W3C//DTD SVG 20010904//EN"
 "http://www.w3.org/TR/2001/REC-SVG-20010904/DTD/svg10.dtd">
<svg version="1.0" xmlns="http://www.w3.org/2000/svg"
 width="700.000000pt" height="700.000000pt" viewBox="0 0 700.000000 700.000000"
 preserveAspectRatio="xMidYMid meet">
<metadata>
Created by potrace 1.14, written by Peter Selinger 2001-2017
</metadata>
<g transform="translate(0.000000,700.000000) scale(0.100000,-0.100000)"
fill="#000000" stroke="none">
<path d="M3411 6988 c-66 -18 -139 -78 -174 -143 -22 -39 -22 -50 -27 -604
l-5 -565 -70 84 c-38 47 -80 96 -91 110 -12 14 -101 120 -198 237 -97 117
-196 225 -219 241 -51 35 -112 51 -175 47 -64 -5 -71 -7 -120 -33 -163 -85
-196 -305 -66 -425 39 -36 108 -94 347 -295 48 -40 87 -78 87 -83 0 -5 4 -8 9
-6 5 1 24 -12 42 -28 19 -17 57 -48 84 -70 28 -22 55 -45 60 -51 6 -5 51 -44
100 -85 50 -40 92 -76 95 -79 3 -3 31 -27 63 -53 l57 -49 0 -569 0 -569 -22 9
c-13 5 -45 22 -73 39 -27 17 -65 38 -82 48 -18 9 -30 21 -26 27 3 6 1 7 -5 3
-6 -4 -75 31 -154 77 -79 46 -189 110 -246 143 -57 32 -111 64 -120 69 -9 6
-39 23 -67 38 -27 15 -72 41 -100 58 -27 16 -60 35 -73 41 -22 11 -26 21 -37
83 -10 59 -36 211 -41 235 -2 14 -7 40 -10 59 -3 18 -8 43 -10 55 -2 11 -9 48
-14 81 -6 33 -14 83 -19 110 -5 28 -12 68 -16 90 -3 22 -8 51 -11 65 -32 172
-55 302 -59 330 -3 19 -7 46 -10 60 -3 14 -8 41 -11 60 -11 54 -57 121 -111
158 -121 85 -294 45 -380 -87 -54 -81 -64 -181 -29 -266 8 -19 16 -39 17 -43
1 -4 5 -17 10 -30 5 -13 9 -28 9 -33 0 -5 4 -17 9 -27 6 -9 22 -51 36 -92 15
-41 33 -91 40 -110 7 -19 26 -69 40 -110 15 -41 31 -84 35 -95 31 -75 72 -196
69 -200 -3 -2 -101 52 -219 121 -118 69 -237 138 -265 153 -27 15 -106 61
-175 101 -69 40 -147 86 -175 102 -100 58 -137 71 -202 71 -154 -1 -273 -122
-279 -284 -3 -74 21 -141 72 -195 23 -24 263 -173 334 -207 8 -4 29 -16 45
-26 40 -24 198 -116 260 -151 28 -15 112 -64 188 -108 145 -84 145 -85 62 -97
-23 -3 -52 -8 -65 -10 -53 -11 -187 -35 -220 -40 -19 -3 -71 -12 -115 -20 -44
-7 -96 -16 -115 -19 -19 -3 -57 -10 -85 -15 -27 -6 -69 -12 -92 -15 -100 -12
-187 -73 -235 -166 -19 -37 -23 -60 -23 -130 0 -75 3 -91 27 -131 73 -124 195
-165 339 -114 41 14 93 33 117 41 23 8 48 12 54 8 6 -4 8 -3 4 4 -3 6 4 14 16
17 22 7 234 82 308 110 19 7 60 22 90 33 30 11 64 24 75 28 11 4 22 8 25 9 3
1 12 4 20 8 17 7 137 50 190 68 19 7 44 15 55 20 11 4 40 15 65 24 107 41 87
45 297 -61 106 -54 189 -102 186 -107 -3 -6 -1 -7 5 -3 6 3 163 -71 349 -166
186 -94 348 -177 360 -182 13 -6 23 -13 23 -16 0 -4 -46 -29 -102 -56 -57 -28
-223 -112 -370 -187 -148 -75 -268 -133 -268 -129 0 4 -4 2 -8 -5 -4 -7 -88
-54 -187 -104 -175 -89 -180 -91 -215 -79 -117 41 -342 123 -385 140 -11 4
-33 13 -50 18 -16 6 -79 28 -140 51 -60 22 -211 77 -335 122 -124 45 -244 84
-267 86 -94 11 -198 -45 -251 -135 -24 -41 -27 -57 -27 -132 0 -71 4 -93 25
-133 44 -87 132 -148 230 -162 25 -3 68 -10 95 -15 64 -12 68 -13 340 -61 127
-22 237 -42 245 -44 8 -2 30 -4 48 -4 17 -1 32 -5 32 -10 0 -9 -18 -20 -140
-89 -25 -13 -56 -32 -70 -42 -14 -9 -32 -20 -40 -23 -8 -4 -33 -18 -55 -31
-22 -14 -56 -33 -75 -44 -134 -75 -531 -308 -555 -327 -46 -35 -85 -113 -91
-187 -15 -164 116 -311 278 -310 75 0 95 7 212 76 50 30 152 88 226 131 160
92 161 92 325 187 33 19 110 64 172 100 l111 66 -35 -97 c-19 -53 -52 -143
-73 -201 -21 -58 -71 -193 -111 -300 -63 -172 -72 -203 -72 -265 -1 -251 297
-382 470 -206 47 49 68 106 88 241 3 19 8 46 11 60 3 14 7 36 9 50 4 28 32
192 40 230 6 31 13 70 20 113 3 17 8 43 10 57 11 53 15 76 20 115 3 22 8 51
10 65 11 55 16 79 35 185 11 61 22 121 25 135 3 14 6 38 7 53 2 24 13 35 68
65 89 50 56 32 487 282 388 225 432 250 439 250 2 0 4 -256 4 -569 l0 -569
-57 -48 c-32 -27 -69 -58 -82 -69 -13 -11 -29 -25 -35 -30 -6 -6 -38 -33 -71
-60 -33 -28 -65 -54 -71 -60 -6 -5 -28 -23 -49 -40 -21 -16 -45 -37 -53 -45
-55 -53 -247 -208 -254 -204 -5 3 -7 1 -6 -3 3 -10 -34 -43 -232 -208 -42 -36
-100 -112 -109 -145 -2 -8 -4 -42 -4 -75 0 -152 118 -266 278 -269 61 -1 79 3
135 32 60 31 77 48 225 228 88 107 167 202 175 212 8 9 46 54 83 100 38 45 73
82 78 82 6 0 8 4 5 9 -3 4 6 19 19 31 l25 23 0 -554 0 -554 24 -50 c84 -177
324 -218 461 -79 82 83 80 66 80 686 0 302 1 548 3 548 6 0 55 -58 132 -153 8
-11 20 -24 25 -31 6 -6 91 -108 189 -226 97 -118 193 -228 211 -243 185 -154
482 -7 463 228 -8 93 -40 138 -185 260 -72 61 -153 129 -180 152 -26 22 -95
81 -153 129 -58 48 -110 92 -116 98 -6 6 -30 27 -54 46 -24 19 -78 64 -120
100 -42 36 -106 89 -143 119 -37 30 -67 57 -68 60 0 3 -1 180 -2 394 -1 252 1
387 8 387 7 0 7 3 0 8 -6 4 -10 76 -10 180 0 149 2 171 15 167 54 -21 399
-229 393 -238 -3 -6 -1 -7 6 -3 7 5 92 -39 209 -107 108 -63 223 -129 255
-147 31 -18 55 -36 51 -41 -3 -5 1 -6 9 -3 25 9 58 -28 62 -71 1 -22 5 -47 8
-55 4 -8 8 -28 10 -45 3 -16 10 -57 16 -90 10 -58 15 -85 26 -150 3 -16 12
-67 20 -112 37 -205 45 -251 51 -293 3 -24 7 -47 9 -50 2 -4 7 -29 10 -56 4
-27 10 -65 15 -84 5 -19 16 -82 25 -139 10 -57 24 -119 31 -138 22 -53 79
-109 136 -133 182 -78 388 64 388 269 0 52 -4 66 -53 201 -19 52 -49 136 -67
185 -17 50 -38 104 -45 120 -7 17 -16 41 -20 55 -3 14 -10 34 -15 45 -20 42
-89 239 -86 243 2 1 41 -19 87 -46 46 -27 104 -60 129 -74 25 -14 86 -49 135
-78 50 -29 104 -60 120 -70 17 -9 112 -65 213 -124 260 -151 272 -157 346
-158 48 -1 74 5 116 25 67 32 78 41 118 96 81 111 69 273 -26 363 -33 30 -89
66 -212 135 -44 25 -140 81 -160 93 -30 19 -361 210 -364 210 -2 0 -52 29
-111 65 -111 65 -113 69 -40 79 22 3 50 7 61 10 12 2 39 7 60 10 22 4 55 9 74
13 19 3 42 7 50 8 8 1 31 5 50 9 19 3 46 8 60 10 14 3 39 7 55 10 17 3 44 8
60 10 98 15 263 47 294 57 156 50 238 239 172 392 -62 142 -212 188 -386 120
-44 -17 -156 -59 -250 -93 -177 -64 -239 -87 -327 -119 -232 -86 -497 -181
-503 -181 -8 0 -52 22 -445 223 -129 66 -290 148 -358 182 -67 34 -120 64
-117 66 3 3 -1 6 -8 6 -20 0 -87 34 -87 45 0 5 -4 6 -10 3 -9 -6 -90 35 -90
45 0 8 333 175 347 174 7 -1 11 1 8 5 -6 10 104 63 116 55 5 -3 8 -1 7 4 -2 6
100 62 226 126 126 64 234 120 240 124 6 4 13 7 16 8 12 2 45 18 50 23 3 3 26
17 53 29 l48 24 72 -25 c75 -26 147 -53 182 -67 11 -5 40 -15 65 -23 25 -9
225 -81 445 -161 220 -81 420 -149 445 -152 56 -7 125 11 170 45 199 146 125
459 -121 510 -62 13 -255 47 -313 56 -21 3 -48 7 -60 10 -12 3 -32 7 -46 9
-90 14 -348 59 -360 63 -13 4 -13 5 0 13 393 225 905 527 934 551 115 96 116
300 3 410 -79 76 -206 103 -297 62 -25 -11 -117 -62 -205 -113 -88 -51 -180
-104 -204 -118 -25 -14 -67 -38 -94 -54 -27 -16 -54 -30 -61 -31 -6 -1 -14 -5
-17 -10 -8 -10 -351 -208 -355 -204 -3 3 117 338 165 462 136 348 145 408 86
525 -80 157 -285 202 -416 90 -48 -41 -86 -106 -92 -160 -3 -19 -16 -100 -31
-180 -14 -80 -28 -158 -31 -175 -3 -16 -8 -41 -10 -55 -3 -14 -8 -38 -10 -55
-5 -28 -11 -66 -21 -125 -3 -14 -11 -61 -20 -105 -8 -44 -17 -96 -20 -115 -3
-19 -9 -57 -14 -85 -16 -83 -20 -108 -26 -145 -3 -19 -11 -62 -17 -94 l-12
-60 -245 -143 c-296 -172 -300 -174 -313 -166 -5 3 -7 2 -4 -4 4 -5 -6 -16
-21 -24 -15 -8 -51 -29 -80 -47 -29 -18 -58 -30 -64 -26 -6 4 -9 3 -5 -2 6
-10 -157 -107 -180 -107 -7 0 -11 -3 -8 -5 3 -3 -9 -14 -26 -24 -17 -11 -33
-17 -36 -15 -10 10 -10 86 0 80 6 -4 7 -1 2 7 -9 14 -12 387 -3 396 4 3 4 12
2 18 -10 26 -9 96 1 100 6 3 6 5 0 5 -6 1 -10 96 -9 266 1 299 -8 262 89 340
28 22 66 54 85 72 19 18 41 31 48 28 7 -3 11 -1 8 4 -4 5 17 29 46 53 29 23
60 50 69 58 31 29 122 105 142 119 12 8 28 22 37 30 19 19 45 41 165 141 50
41 92 77 95 80 3 3 46 40 97 83 113 95 138 139 138 243 0 55 -5 81 -24 118
-61 118 -207 179 -337 140 -86 -26 -106 -44 -289 -269 -49 -60 -100 -121 -112
-135 -38 -44 -56 -65 -138 -165 -44 -54 -89 -108 -100 -121 l-20 -23 0 552 c0
509 -1 556 -18 599 -24 61 -83 123 -143 150 -54 24 -148 31 -203 16z"/>
<path d="M3070 4960 c0 -5 5 -10 11 -10 5 0 7 5 4 10 -3 6 -8 10 -11 10 -2 0
-4 -4 -4 -10z"/>
<path d="M2915 4881 c-3 -5 -2 -12 3 -15 5 -3 9 1 9 9 0 17 -3 19 -12 6z"/>
<path d="M2995 4880 c-3 -5 -1 -10 4 -10 6 0 11 5 11 10 0 6 -2 10 -4 10 -3 0
-8 -4 -11 -10z"/>
<path d="M1946 3838 c3 -5 10 -6 15 -3 13 9 11 12 -6 12 -8 0 -12 -4 -9 -9z"/>
<path d="M4995 3681 c-3 -5 -2 -12 3 -15 5 -3 9 1 9 9 0 17 -3 19 -12 6z"/>
<path d="M4995 3611 c-3 -5 -2 -12 3 -15 5 -3 9 1 9 9 0 17 -3 19 -12 6z"/>
<path d="M2670 2239 c0 -5 5 -7 10 -4 6 3 10 8 10 11 0 2 -4 4 -10 4 -5 0 -10
-5 -10 -11z"/>
<path d="M3955 2000 c-3 -5 -1 -10 4 -10 6 0 11 5 11 10 0 6 -2 10 -4 10 -3 0
-8 -4 -11 -10z"/>
</g>
</svg>
