<svg viewBox="0 0 16 16">
    <path d="M8.70806672,0.774494228 C8.52027842,0.598738796 8.26558741,0.5 7.99997964,0.5 C7.73442195,0.5 7.47972093,0.598738796 7.29190258,0.774494228 L0.281139469,7.33708036 C0.0986993821,7.51389518 -0.00224559136,7.75071079 1.02463177e-13,7.99652652 C0.00231140466,8.24234224 0.107643113,8.47747033 0.293338197,8.65128511 C0.479033281,8.82509989 0.730228923,8.92372619 0.992832079,8.92588246 C1.25543523,8.92803874 1.50842363,8.8335375 1.69731362,8.66272276 L1.99076413,8.38803166 L1.99076413,14.5624877 C1.99076413,14.811116 2.09628613,15.0496191 2.28410447,15.2254026 C2.47193283,15.4011862 2.72667392,15.5 2.99230172,15.5 L4.99537689,15.5 C5.26100469,15.5 5.51574578,15.4011862 5.70357414,15.2254026 C5.89139248,15.0496191 5.99691448,14.811116 5.99691448,14.5624877 L5.99691448,12.6874631 C5.99691448,12.4388348 6.10243648,12.2003317 6.29025483,12.0245481 C6.47808318,11.8487646 6.73282427,11.7499508 6.99845207,11.7499508 L9.00151723,11.7499508 C9.267125,11.7499508 9.52191616,11.8487646 9.70970446,12.0245481 C9.89759291,12.2003317 10.0030548,12.4388348 10.0030548,12.6874631 L10.0030548,14.5624877 C10.0030548,14.811116 10.1086169,15.0496191 10.2964052,15.2254026 C10.4841935,15.4011862 10.7389846,15.5 11.0045924,15.5 L13.0076676,15.5 C13.2732753,15.5 13.5280665,15.4011862 13.7158548,15.2254026 C13.9037433,15.0496191 14.0092052,14.811116 14.0092052,14.5624877 L14.0092052,8.38803166 L14.3026557,8.66272276 C14.4915457,8.8335375 14.7445341,8.92803874 15.0071372,8.92588246 C15.2697404,8.92372619 15.520926,8.82509989 15.7066111,8.65128511 C15.8922961,8.47747033 15.9976579,8.24234224 16,7.99652652 C16.002265,7.75071079 15.90131,7.51389518 15.7188298,7.33708036 L8.70806672,0.774494228 Z" />
</svg>